/* XPM */
static char * easyrpg_xpm[] = {
"48 48 255 2",
"  	c None",
". 	c #080100",
"+ 	c #090A06",
"@ 	c #200604",
"# 	c #0D0F0C",
"$ 	c #15140C",
"% 	c #161611",
"& 	c #201E0E",
"* 	c #201F19",
"= 	c #272712",
"- 	c #2A261B",
"; 	c #353315",
"> 	c #363428",
", 	c #35342D",
"' 	c #3B3726",
") 	c #3C3A19",
"! 	c #483E2F",
"~ 	c #444030",
"{ 	c #4B461F",
"] 	c #504732",
"^ 	c #504737",
"/ 	c #5A4D36",
"( 	c #2F567B",
"_ 	c #574E3E",
": 	c #565525",
"< 	c #C52A10",
"[ 	c #605545",
"} 	c #605943",
"| 	c #655741",
"1 	c #6B5B3C",
"2 	c #655D4C",
"3 	c #000200",
"4 	c #656831",
"5 	c #F1280B",
"6 	c #DB3212",
"7 	c #6F604B",
"8 	c #FD2908",
"9 	c #746444",
"0 	c #74654A",
"a 	c #71684B",
"b 	c #3C74A9",
"c 	c #746852",
"d 	c #DC3D1E",
"e 	c #746D55",
"f 	c #796B56",
"g 	c #7F6A53",
"h 	c #766F52",
"i 	c #796D5C",
"j 	c #797935",
"k 	c #637B68",
"l 	c #807055",
"m 	c #7B745C",
"n 	c #80725C",
"o 	c #817A31",
"p 	c #7C7C38",
"q 	c #827665",
"r 	c #86775B",
"s 	c #857A57",
"t 	c #877762",
"u 	c #8A7958",
"v 	c #8C7C60",
"w 	c #E0583C",
"x 	c #937B5B",
"y 	c #8B7F68",
"z 	c #8B8937",
"A 	c #8F8259",
"B 	c #EB5A35",
"C 	c #947E64",
"D 	c #918360",
"E 	c #918266",
"F 	c #918E3C",
"G 	c #968758",
"H 	c #938864",
"I 	c #938670",
"J 	c #9C856B",
"K 	c #918C66",
"L 	c #9A896D",
"M 	c #9D8A69",
"N 	c #9C8F65",
"O 	c #A1905B",
"P 	c #9C8E77",
"Q 	c #999A40",
"R 	c #9A916F",
"S 	c #699FB0",
"T 	c #AA8D62",
"U 	c #A69063",
"V 	c #9C956A",
"W 	c #A29275",
"X 	c #F67142",
"Y 	c #A19D43",
"Z 	c #B78D60",
"` 	c #A2947F",
" .	c #B19362",
"..	c #A0A247",
"+.	c #A79776",
"@.	c #AE976A",
"#.	c #AD9964",
"$.	c #A79B71",
"%.	c #ABA846",
"&.	c #69B0D3",
"*.	c #BC9D6B",
"=.	c #B5A078",
"-.	c #B1A17E",
";.	c #BAA16D",
">.	c #B2A474",
",.	c #B3A184",
"'.	c #B2A47A",
").	c #CB9E6C",
"!.	c #B3B14A",
"~.	c #F88C5C",
"{.	c #BDA678",
"].	c #C4A573",
"^.	c #BCAA73",
"/.	c #B7A890",
"(.	c #BCA980",
"_.	c #88B9B9",
":.	c #F29461",
"<.	c #BFA78B",
"[.	c #F5926B",
"}.	c #BDB54D",
"|.	c #BAAE7C",
"1.	c #E69976",
"2.	c #BDAB89",
"3.	c #D3A571",
"4.	c #CEAB6D",
"5.	c #BCBA50",
"6.	c #C7B081",
"7.	c #C2BE4D",
"8.	c #C8B478",
"9.	c #CBB27D",
"0.	c #CFB07D",
"a.	c #CDB278",
"b.	c #C7B47E",
"c.	c #C5B38F",
"d.	c #C6B585",
"e.	c #C9BE4F",
"f.	c #CEB38B",
"g.	c #CABA89",
"h.	c #D2B58E",
"i.	c #D7B683",
"j.	c #D4B97E",
"k.	c #D5BA79",
"l.	c #D3B984",
"m.	c #DDB873",
"n.	c #DCB879",
"o.	c #CCBC91",
"p.	c #CFBD86",
"q.	c #CFBA99",
"r.	c #D3BE81",
"s.	c #DCBA81",
"t.	c #CACC59",
"u.	c #D3BD93",
"v.	c #D7BF8F",
"w.	c #DDC186",
"x.	c #E9BD80",
"y.	c #D4C593",
"z.	c #D7C58E",
"A.	c #D9C299",
"B.	c #E2C37C",
"C.	c #DAC588",
"D.	c #E2BE98",
"E.	c #E6C182",
"F.	c #D3D459",
"G.	c #E3C194",
"H.	c #DFC58F",
"I.	c #D7C5A7",
"J.	c #DEC596",
"K.	c #DBC6A2",
"L.	c #F6BE85",
"M.	c #E9C87A",
"N.	c #DCD659",
"O.	c #E5C98D",
"P.	c #E4CA94",
"Q.	c #F7C482",
"R.	c #DCCF94",
"S.	c #DDCD9D",
"T.	c #ECC892",
"U.	c #DFCBA7",
"V.	c #E9C99C",
"W.	c #EACD84",
"X.	c #E5CC9C",
"Y.	c #E3CCA2",
"Z.	c #E5D092",
"`.	c #F2CC86",
" +	c #E5D199",
".+	c #F1D476",
"++	c #F4CE8E",
"@+	c #F0D18F",
"#+	c #E4D1B3",
"$+	c #EFD296",
"%+	c #E3D897",
"&+	c #EDD29C",
"*+	c #E7E25F",
"=+	c #ECD3A3",
"-+	c #F3D783",
";+	c #E3D9A7",
">+	c #E6D99F",
",+	c #E9D5B1",
"'+	c #ECD5AB",
")+	c #F6D39D",
"!+	c #F6D68D",
"~+	c #E0DF9B",
"{+	c #F0D994",
"]+	c #E5D7C4",
"^+	c #FCDA8B",
"/+	c #DEEB88",
"(+	c #F6DD96",
"_+	c #F1DDA5",
":+	c #F4DBAA",
"<+	c #EBE0AB",
"[+	c #FBD9A5",
"}+	c #EDE0A6",
"|+	c #FCDC93",
"1+	c #F7DCA5",
"2+	c #FEDB9A",
"3+	c #ECE0B3",
"4+	c #F5DFA0",
"5+	c #E8DDD0",
"6+	c #F3DDB3",
"7+	c #EFED6A",
"8+	c #FBE08F",
"9+	c #FBDDA1",
"0+	c #F5EE65",
"a+	c #F9DFAF",
"b+	c #FBEB6C",
"c+	c #FDE5A0",
"d+	c #F4E7AE",
"e+	c #FFE69B",
"f+	c #FDE3B2",
"g+	c #FFE4AD",
"h+	c #F9E9A8",
"i+	c #FAE7B5",
"j+	c #FFE8A9",
"k+	c #F6EABC",
"l+	c #F5F96F",
"m+	c #FFE7B6",
"n+	c #FFEAB1",
"o+	c #FFE8BD",
"p+	c #FFEDA6",
"q+	c #FFFA68",
"r+	c #FFECB9",
"s+	c #FEEFAE",
"t+	c #FDF0B5",
"u+	c #FDFF6B",
"v+	c #FFEFBC",
"w+	c #FFEFC2",
"x+	c #FDFF73",
"y+	c #FEF5A7",
"z+	c #FFF3B8",
"A+	c #FEF3BE",
"B+	c #FFF8BB",
"C+	c #FDF8C1",
"D+	c #FDFBB6",
"E+	c #FEFFC0",
"F+	c #FDFFC7",
"                                                                                                ",
"                                                                                                ",
"                                                                                                ",
"                                                                                                ",
"                                                                                                ",
"                                                                                                ",
"                                                                                                ",
"  , - _ x E E H K K K                                                               k S b       ",
"  c a e ;.E.Z. +S.y.y.g.|.>.$.V N A A                                             ) 0+u+/+&.(   ",
"    P V (.o.l.O.}+<+<+<+<+;+;+ +y.y.p.b.^.#.O G A u h                           & N.x+x+x+l+_.( ",
"  ,+P.>+~+%+<+<+R.s+z+t+t+t+d+d+}+>+>+R.R.z.C.k.8.a.^.>.M                     $ }.q+x+x+x+x+4 ( ",
"  B+D+D+D+D+y+P.$+j+B+C+C+B+C+B+t+r+h+n+4+4+ + +O.C.j.l.d.=.                  o x+x+x+x+x+F 3   ",
"  B+F+F+E+D+j.T.^+s+B+B+B+B+B+t+B+t+h+n+d+j+}+4+&+&+P.H.y.g.W               : e.0+7+x+q+!.3     ",
"    D+F+D+D+4.`.c+y+z+E+C+B+C+A+t+A+z+s+z.a u R -.X.X.X.P.z.=.            ) 0+..F.F 7+t.+       ",
"    s+n+p+p+n.M.^+p+z+B+B+z+B+z+t+t+>+~ 3 3 + ! 3 ' $.P.P.P.6.          & }.%.F ..Y b+&         ",
"              M.^+p+s+z+B+z+z+A+n+_+j+- 3 ~ ].M # . ! S.J.w.a.U         %.5.F t.x+l+; 3         ",
"              B.^+e+s+t+B+t+z+z+d++ ] D p.(+{+(+H.a M '.g.z.r. .      o Y F 5.!.x+: 3           ",
"              n.-+e+p+t+t+z+t+t+|.. . s 9+9+@+x.$+&+>.3 > H.r.@.    : 0+t.p t.*+o 3             ",
"              n.-+^+2+g+n+n+n+n+h 3 . N 4+[.:.8 ~. +d.. } g.z.;.  ; N.q+x+x+F...3               ",
"              9.Z.(+2+1+n+n+z+z+~ . 3 {.@+8 8 8 X >.M '.} ^ y.8./ e.q+q+q+x+5..                 ",
"                k.@+T.P.1+1+r+n+R } >  +T.d 8 8 6 @ . | . # <.z.3.b+x+u+q+N.%                   ",
"                0.s.f.h.I.#+f+v+A+n+n+g+n+(.< 8 8 < c o.2.U.A.q.3.L.b+q+0+=                     ",
"                  ]+5+      6+m+v+m ~ 7 i+1+5 8 w [.6+,+,+,+A.f.).L.L..+{ 3                     ",
"                        o.I.,+r+v+* . 3 S.o+1.w w+6+i+6+,+,+#+L T ).).).                        ",
"                    l.d.v.V.:+i+w+y 3 . e r+m+m+m+o+k+6+,+'+I.> - T T                           ",
"                  8.m.s.T.V.1+n+A+3+# 3 # d+r+m+w+f+f+f+3+'+_ . > v.a.*.            f           ",
"                    n.E.++[+m+n+A+k+2 % y k+c.3+o+o+f+f+K.c . . D y.g.a.*.        h l 1         ",
"                    j.x.++9+g+A+w+C+;+k+A+,.3 % e A.2.^ 3 % -.E X.X.H.r.9.@.    u C 9           ",
"                    b.x.`.2+j+B+C+w+w+k+v+^ . . 3 [ i 3 . } S.S.S.S.X.z.j.;.v y u 0 ]           ",
"                      n.++8+s+z+A+C+A+r+w+k+2.7 > L a+2.S.:+:+=+=+X.S.J.-.J C q 0               ",
"                      w.@+|+j+z+z+A+A+r+i+i+i+o+o+a+a+6+[+'+6+=+=+X.v.M J L r [                 ",
"                        B.++j+s+A+A+r+r+m+i+w+o+f+o+6+a+6+6+:+:+ +q.I J W D }                   ",
"                        k.++++j+n+C+A+A+r+m+f+k+o+o+o+f+f+a+6+Y.o.2.E L v |                     ",
"                        i.k.)+2+j+r+r+w+w+w+w+o+o+w+o+m+g+:+u.,.I (.y n |                       ",
"                          0.l.y.'+m+r+A+A+w+w+w+o+w+o+o+:+2.q y I L c _                         ",
"                                I.6+r+w+w+w+w+w+w+o+m+Y.I q v J t 2                             ",
"                              <.G._+r+A+A+w+w+w+r+i+q.,.v L E v [                               ",
"                              <.G.1+r+r+v+v+w+o+'+I i /.y C C [                                 ",
"                              <.D.)+f+r+v+r+m+c.t n l P y n [                                   ",
"                                h.Y.1+g+n+m+Y.e n t r r g _                                     ",
"                                (.G.=+1+_+g+:+q g n r c ^                                       ",
"                                  0.T.&+&+Y.K.I 7 0 } ^                                         ",
"                                  '.6.J.J.c.,.I [ /                                             ",
"                                    9.6.=.W ` q !                                               ",
"                                      +.`   I _                                                 ",
"                                          u 0                                                   ",
"                                                                                                ",
"                                                                                                "};
