/* XPM */
static char * easyrpg_xpm[] = {
"48 48 257 2",
"  	c None",
". 	c #000100",
"+ 	c #090200",
"@ 	c #030602",
"# 	c #080A06",
"$ 	c #0E100C",
"% 	c #140E0B",
"& 	c #121411",
"* 	c #0D1822",
"= 	c #151714",
"- 	c #1A1811",
"; 	c #1C1A0E",
"> 	c #211E13",
", 	c #1F1F18",
"' 	c #510C01",
") 	c #241F19",
"! 	c #212312",
"~ 	c #24240E",
"{ 	c #2A251B",
"] 	c #282623",
"^ 	c #312C21",
"/ 	c #2F2E27",
"( 	c #353025",
"_ 	c #363417",
": 	c #35332F",
"< 	c #3F3728",
"[ 	c #3E382D",
"} 	c #413E1A",
"| 	c #463E2E",
"1 	c #453F34",
"2 	c #4F3E2B",
"3 	c #52452B",
"4 	c #4F4636",
"5 	c #4F463B",
"6 	c #514732",
"7 	c #4F4F20",
"8 	c #534D41",
"9 	c #574E3E",
"0 	c #5A503A",
"a 	c #3F5962",
"b 	c #315D84",
"c 	c #605741",
"d 	c #625747",
"e 	c #A23E24",
"f 	c #625B44",
"g 	c #636029",
"h 	c #675A46",
"i 	c #FF200B",
"j 	c #6D6045",
"k 	c #3A6B9B",
"l 	c #6A624B",
"m 	c #726242",
"n 	c #FC2707",
"o 	c #6E6252",
"p 	c #776450",
"q 	c #F83012",
"r 	c #76712E",
"s 	c #786B55",
"t 	c #7E6950",
"u 	c #7B6B50",
"v 	c #7B6C4B",
"w 	c #786E52",
"x 	c #806C58",
"y 	c #8A6B49",
"z 	c #83714D",
"A 	c #7F715B",
"B 	c #7D7161",
"C 	c #827257",
"D 	c #817A31",
"E 	c #AF623F",
"F 	c #897561",
"G 	c #8A7B47",
"H 	c #867862",
"I 	c #FB4826",
"J 	c #897958",
"K 	c #5286AA",
"L 	c #88795D",
"M 	c #83796D",
"N 	c #897C53",
"O 	c #897E67",
"P 	c #89873C",
"Q 	c #957E62",
"R 	c #918838",
"S 	c #918164",
"T 	c #8E8461",
"U 	c #8D8D3A",
"V 	c #958670",
"W 	c #9D866B",
"X 	c #99896C",
"Y 	c #958B6D",
"Z 	c #9C8D5E",
"` 	c #99953C",
" .	c #998E64",
"..	c #9C8C6A",
"+.	c #A18B64",
"@.	c #AA8C5B",
"#.	c #9F9275",
"$.	c #B38C61",
"%.	c #A69572",
"&.	c #A2A348",
"*.	c #DB825F",
"=.	c #A69780",
"-.	c #A2978B",
";.	c #A8997C",
">.	c #A99C72",
",.	c #AAA746",
"'.	c #C4946E",
").	c #B29D6F",
"!.	c #B39E69",
"~.	c #F28554",
"{.	c #6DB0DA",
"].	c #AFAC49",
"^.	c #B3A181",
"/.	c #B2A67B",
"(.	c #B3A38C",
"_.	c #BBA570",
":.	c #B9A47C",
"<.	c #EF915B",
"[.	c #B2A697",
"}.	c #CDA06F",
"|.	c #C1AA6F",
"1.	c #BCB54D",
"2.	c #DD9D76",
"3.	c #BDAB88",
"4.	c #C2AB7D",
"5.	c #8CBDBD",
"6.	c #CDAC77",
"7.	c #C9AC87",
"8.	c #C8B07B",
"9.	c #BFB387",
"0.	c #CAB176",
"a.	c #CCAE81",
"b.	c #C6BB4C",
"c.	c #D9AB76",
"d.	c #C4B483",
"e.	c #D1B172",
"f.	c #C7B289",
"g.	c #C9B592",
"h.	c #C5C452",
"i.	c #CAB988",
"j.	c #D3B87D",
"k.	c #CFBB7E",
"l.	c #C9BC97",
"m.	c #D0BA90",
"n.	c #E5B479",
"o.	c #D6B88D",
"p.	c #C9BE91",
"q.	c #EFAD85",
"r.	c #D5BB86",
"s.	c #D3BB8C",
"t.	c #CDBB9D",
"u.	c #CACC59",
"v.	c #D1BD99",
"w.	c #E2BA7C",
"x.	c #D3C089",
"y.	c #DABF7D",
"z.	c #DEBC86",
"A.	c #E4BC77",
"B.	c #F0B58A",
"C.	c #D3CF56",
"D.	c #D7C48D",
"E.	c #DEC287",
"F.	c #D4C78B",
"G.	c #E8C175",
"H.	c #D7C399",
"I.	c #D7C594",
"J.	c #E0C097",
"K.	c #E1C57C",
"L.	c #F4BC83",
"M.	c #D2C5B2",
"N.	c #DFC590",
"O.	c #EBC384",
"P.	c #DBC6A2",
"Q.	c #DFC797",
"R.	c #D5D094",
"S.	c #E1CC8E",
"T.	c #DFCC94",
"U.	c #DFCD9B",
"V.	c #E6CB96",
"W.	c #E0CCA1",
"X.	c #E0CBA7",
"Y.	c #E9C99B",
"Z.	c #ECCA93",
"`.	c #EFCA8B",
" +	c #E5CC9C",
".+	c #DBD19D",
"++	c #EAC9A2",
"@+	c #EED081",
"#+	c #DDD4A7",
"$+	c #F1D088",
"%+	c #E1E060",
"&+	c #C9E392",
"*+	c #E2D59C",
"=+	c #E9D395",
"-+	c #EFD296",
";+	c #EAD3A9",
">+	c #EFD592",
",+	c #F6D09A",
"'+	c #E9D69E",
")+	c #FAD480",
"!+	c #EFD49E",
"~+	c #EDD4A4",
"{+	c #E5D8A5",
"]+	c #F7D874",
"^+	c #E9D4B0",
"/+	c #F8D393",
"(+	c #E7DD95",
"_+	c #F5D3A5",
":+	c #F8D788",
"<+	c #FDD794",
"[+	c #EDE962",
"}+	c #F8DB96",
"|+	c #F4DAAA",
"1+	c #EADFAB",
"2+	c #F1DDA5",
"3+	c #EDE0A5",
"4+	c #F3DCB2",
"5+	c #F2E19A",
"6+	c #F8DDA6",
"7+	c #FADDA1",
"8+	c #FEE08F",
"9+	c #F7E1A2",
"0+	c #FFDDA8",
"a+	c #F2E2B5",
"b+	c #F9E0AF",
"c+	c #F5F066",
"d+	c #FBF060",
"e+	c #FEE499",
"f+	c #F6E7A6",
"g+	c #F7E5B2",
"h+	c #FFE5A1",
"i+	c #FDE4B3",
"j+	c #FFE5AE",
"k+	c #FEE7A8",
"l+	c #F6EAAF",
"m+	c #FCE7AF",
"n+	c #FFEC9F",
"o+	c #FFE8B7",
"p+	c #FEECA5",
"q+	c #FFE8BD",
"r+	c #FFFA67",
"s+	c #FFECB3",
"t+	c #FEECB9",
"u+	c #FFF0AE",
"v+	c #FDF0B5",
"w+	c #FEEEC1",
"x+	c #FFEFBC",
"y+	c #FEF3AA",
"z+	c #FBFF72",
"A+	c #FEFF6B",
"B+	c #F8F7A8",
"C+	c #FDF5B2",
"D+	c #FFF3B8",
"E+	c #FEF3BE",
"F+	c #FFF8BB",
"G+	c #FEFDB7",
"H+	c #FEFFC1",
"                                                                                                ",
"                                                                                                ",
"  , [ t C C L T Y                                                                   a K k       ",
"c j d :.j.N.x.R.p.p.9./.>. . .T J                                                 $ h.z+&+{.b   ",
"  u T %.f.N.N.=+3+3+{+1+{+.+.+I.i.d._.!.Z Z N N v                                 ` r+z+A+z+5.b ",
"  v.x.R.R..+W.#+3+l+v+l+x+1+3+3+3+*+*+T.F.k.y.0.|.!.).+.L                       g c+z+z+z+z+u.b ",
"l+C+G+B+B+B+(+T.k+v+E+F+D+F+v+l+l+l+3+9+2+*+S.S.S.k.x.8.4.X                   } c+z+r+z+z+[+~ * ",
"  H+E+H+G+(+z.`.p+F+H+H+F+D+F+D+D+m+u+m+9+9+2+'+V.N.N.D.I.a.                ! b.c+z+z+z+c+} .   ",
"  H+H+H+G+j.G./+n+v+F+H+H+F+F+E+F+v+u+k+2+>.T.i.!+!+Y.V.T.D.%.            % 1.,.%+P %+z+g .     ",
"  l+s+C+u+-+A.:+n+u+F+E+E+E+F+D+v+s+*+w - . h ) ( ..U.U.V.N.4.            U 1.P u.].%+P . .     ",
"    % $ # { A.:+e+p+C+F+F+D+D+v+v+s+ .. . - J - . @ f U.N.N.8.m         g ].u.,.u.%+].. . @     ",
"      . . + 0.@+e+u+D+D+D+F+D+s+9.w I.| T -+}+E.v % ..I.I.N.k.J       } 1.&.].&.z+u.$ . .       ",
"        . + @.@+8+h+C+D+E+D+D+s+l . . r.9+>+}+=+=+D.d.>  .r.y.+.    ; C.,.R &.1.[+; . .         ",
"            z @+8+e+k+v+v+D+s+u+^ . . =+7+-+<.~.Z.=+w . ) x.k.!.  # ].d+z+u.u.c+_ . . .         ",
"            6 y.8+}+7+k+s+v+t+3+. . $ 9+L.q I i ~.'+I.w /.^.x.8.6 D c+z+z+z+z+7 . . .           ",
"            & j.>+>+,+_+j+s+v+m.# . { k+~.n i n E ^ { h + - g.r.G [+r+A+r+r+r . . .             ",
"              +.y.E.N.Y.~+6+m+t+m+m.d.m+'+e n n n ' $ S 1 H v.m.}.)+r+r+z+` . . .               ",
"              9 J.t.M.[.-.[.i+E+x+a+3.~+o+'.n n n *.;+^+^+X.P.o.c.L.)+c+1.. . .                 ",
"              . ] : . . / M |+x+ .. @ C o+q.q I 2._+a+^+^+X.P.7.}.n.L.B.3 . .                   ",
"                . $ d /.H.X.b+x+#+. . & g+t+;+B.q+4+b+a+4+^+X.o y $.$.2 % .                     ",
"                o 0.r.s.Y._+m+E+w+4 . . #.t+w+t+o+q+i+4+a+^+;.. ( ).|.0 .                       ",
"                  k.A.z.,+|+i+t+E+l.. . [ w+t+q+q+i+q+q+4+m.& . [ x.0.6.Q           s j         ",
"                  ).A.`./+0+j+x+w+w+[ Y g+l.l l.q+i+b+H.o 5 = ) f.I.x.j.6.v       C t j         ",
"                  j z.`./+7+v+E+E+E+E+E+w+[ . @ ( ^.d + @ $ s.m. +W.Q.k.j.).  B J J m           ",
"                  - 6.O.}+h+v+E+H+w+w+E+a+[ + . . Y V @ 4 3.{+~+ +U. +D.r.).J O L p ^           ",
"                    Z L.:+h+u+F+E+E+E+o+g+t+;+;.x W.b+++|+|+~+;+'+ +Q.H.%.W V B h ; .           ",
"                    9 y.<+k+u+D+E+E+x+o+t+g+q+b+4+i+b+i+|+|+|+;+{+ +f.W W W J 4 & .             ",
"                    # 6.$+/+k+s+E+E+E+w+t+q+q+w+i+i+i+4+i+4+|+|+~+3.S X +.S 4 # .               ",
"                      v y.`.}+u+v+x+x+w+t+t+q+q+q+q+q+i+i+4+~+H.3.^.V X J 1 @ .                 ",
"                      ) z.`.,+7+t+t+x+x+x+t+w+q+q+q+q+o+j+|+^.=.V 3.L x ( + .                   ",
"                      . S r.o.v.^+t+x+x+w+w+w+w+w+w+q+b+U.=.H O V V l { . .                     ",
"                        . ] ] 5 P.i+x+w+E+w+w+w+w+q+i+g.M O S X A d ) . .                       ",
"                          . 1 7.,+g+E+w+w+w+w+q+t+4+t.=.H V W H 5 & . .                         ",
"                            o 7. +b+o+E+E+E+w+t+P.A B ^.S Q H 4 $ . .                           ",
"                            % 3.++|+i+x+t+o+|+;.A x H V O A 1 % . .                             ",
"                              x J.,+j+j+j+i+3.w H H J L p [ # .                                 ",
"                              ) f.Y.!+2+j+b+W.o x A z h ( . .                                   ",
"                              . u o.V.~+~+++v.B p u c { + .                                     ",
"                                # :.z.I.H.3.;.M c 6 - . .                                       ",
"                                @ 6 8.7.:.V B 5 < % . .                                         ",
"                                  . v V 8 : w [ . @ .                                           ",
"                                    @ % ) z 9 + . .                                             ",
"                                      . ) ^ . .                                                 ",
"                                                                                                ",
"                                                                                                ",
"                                                                                                ",
"                                                                                                ",
"                                                                                                "};
